<svg xmlns="http://www.w3.org/2000/svg" height="24" width="24"><path d="M7.7 22.55q-.925 0-1.537-.612-.613-.613-.613-1.538V3.6q0-.925.613-1.538.612-.612 1.537-.612h8.6q.925 0 1.537.612.613.613.613 1.538v16.8q0 .925-.613 1.538-.612.612-1.537.612Zm-.8-4.75v2.6q0 .3.25.55.25.25.55.25h8.6q.3 0 .55-.25.25-.25.25-.55v-2.6Zm5.1 2.55q.325 0 .588-.263.262-.262.262-.587 0-.325-.262-.587-.263-.263-.588-.263-.325 0-.587.263-.263.262-.263.587 0 .325.263.587.262.263.587.263Zm-5.1-3.9h10.2V5.55H6.9Zm0-12.25h10.2v-.6q0-.3-.25-.55-.25-.25-.55-.25H7.7q-.3 0-.55.25-.25.25-.25.55Zm0 13.6V21.2v-.8Zm0-13.6V2.8v1.4Z"/></svg>